<svg xmlns="http://www.w3.org/2000/svg" version="1.1" viewBox="0 0 32 40" x="0px" y="0px"><title>plus</title><path d="M15.983 0c-0.623 0.010-1.125 0.517-1.125 1.142 0 0.006 0 0.011 0 0.017v-0.001 29.685c0 0.005 0 0.010 0 0.016 0 0.631 0.511 1.142 1.142 1.142s1.142-0.511 1.142-1.142c0-0.006 0-0.011 0-0.017v0.001-29.685c0-0.005 0-0.010 0-0.015 0-0.631-0.511-1.142-1.142-1.142-0.006 0-0.012 0-0.018 0h0.001z"/><path d="M1.158 14.858c-0.005 0-0.010 0-0.016 0-0.631 0-1.142 0.511-1.142 1.142s0.511 1.142 1.142 1.142c0.006 0 0.011 0 0.017 0h29.683c0.005 0 0.010 0 0.016 0 0.631 0 1.142-0.511 1.142-1.142s-0.511-1.142-1.142-1.142c-0.006 0-0.011 0-0.017 0z"/><text x="0" y="47" fill="#000000" font-size="5px" font-weight="bold" font-family="'Helvetica Neue', Helvetica, Arial-Unicode, Arial, Sans-serif">Created by scott desmond</text><text x="0" y="52" fill="#000000" font-size="5px" font-weight="bold" font-family="'Helvetica Neue', Helvetica, Arial-Unicode, Arial, Sans-serif">from the Noun Project</text></svg>