<?xml version="1.0" encoding="utf-8"?>
<!-- Generator: Adobe Illustrator 23.0.3, SVG Export Plug-In . SVG Version: 6.00 Build 0)  -->
<svg version="1.1" id="Calque_1" xmlns="http://www.w3.org/2000/svg" xmlns:xlink="http://www.w3.org/1999/xlink" x="0px" y="0px"
	 viewBox="0 0 66.1 66.1" style="enable-background:new 0 0 66.1 66.1;" xml:space="preserve">
<title>60 all</title>
<path d="M33.3,2.7H12.7c-5.5,0-10,4.5-10,10v20.6c0,5.5,4.5,10,10,10h20.6c5.5,0,10-4.5,10-10V12.7C43.3,7.2,38.8,2.7,33.3,2.7z
	 M39.3,33.3c0,3.3-2.7,6-6,6H12.7c-3.3,0-6-2.7-6-6V12.7c0-3.3,2.7-6,6-6h20.6c3.3,0,6,2.7,6,6C39.3,12.7,39.3,33.3,39.3,33.3z"/>
<path d="M53.3,59.3H32.7c-3.3,0-6-2.7-6-6v-4h-4v4c0,5.5,4.5,10,10,10h20.6c5.5,0,10-4.5,10-10V32.7c0-5.5-4.5-10-10-10h-4v4h4
	c3.3,0,6,2.7,6,6v20.6C59.3,56.6,56.6,59.3,53.3,59.3z"/>
</svg>
