<svg xmlns="http://www.w3.org/2000/svg" version="1.1" viewBox="0 0 32 40" x="0px" y="0px"><title>cog</title><path d="M13.714-0c-0.631 0-1.143 0.512-1.143 1.143v0 2.83c-0.926 0.263-1.811 0.629-2.654 1.096l-1.999-1.999c-0.207-0.207-0.493-0.335-0.808-0.335s-0.601 0.128-0.808 0.335l-3.232 3.232c-0.207 0.207-0.335 0.493-0.335 0.808s0.128 0.601 0.335 0.808l1.999 1.999c-0.47 0.842-0.838 1.727-1.104 2.654h-2.822c-0.631 0-1.143 0.511-1.143 1.143v0 4.571c0 0.631 0.512 1.143 1.143 1.143h2.83c0.263 0.926 0.629 1.811 1.096 2.654l-1.999 1.999c-0.207 0.207-0.335 0.493-0.335 0.808s0.128 0.601 0.335 0.808l3.232 3.232c0.207 0.207 0.493 0.335 0.808 0.335s0.601-0.128 0.808-0.335l1.999-1.999c0.842 0.47 1.727 0.838 2.654 1.104v2.823c0 0.631 0.511 1.143 1.143 1.143h4.571c0.631 0 1.143-0.511 1.143-1.143v0-2.83c0.926-0.263 1.811-0.629 2.654-1.096l1.999 1.999c0.207 0.207 0.493 0.335 0.808 0.335s0.601-0.128 0.808-0.335l3.232-3.232c0.207-0.207 0.335-0.493 0.335-0.808s-0.128-0.601-0.335-0.808l-1.999-1.999c0.47-0.842 0.838-1.727 1.104-2.654h2.822c0.631 0 1.143-0.511 1.143-1.143v0-4.571c0-0.631-0.511-1.143-1.143-1.143h-2.83c-0.263-0.927-0.629-1.811-1.096-2.654l1.999-1.999c0.207-0.207 0.335-0.493 0.335-0.808s-0.128-0.601-0.335-0.808l-3.232-3.232c-0.207-0.207-0.493-0.335-0.808-0.335s-0.601 0.128-0.808 0.335l-1.999 1.999c-0.842-0.47-1.727-0.838-2.654-1.104v-2.822c0-0.631-0.511-1.143-1.143-1.143h-4.571zM14.857 2.286h2.286v2.518c0 0 0 0 0 0 0 0.55 0.387 1.008 0.905 1.118l0.007 0.001c1.288 0.265 2.513 0.774 3.609 1.501 0.178 0.119 0.397 0.19 0.632 0.19 0.315 0 0.601-0.128 0.808-0.334l1.786-1.786 1.616 1.616-1.783 1.783c-0.207 0.207-0.334 0.493-0.334 0.808 0 0.234 0.070 0.451 0.191 0.633l-0.003-0.004c0.723 1.098 1.227 2.324 1.489 3.611 0.11 0.526 0.569 0.915 1.12 0.915 0 0 0.001 0 0.001 0h2.529v2.286h-2.518c0 0 0 0 0 0-0.55 0-1.008 0.387-1.118 0.905l-0.001 0.007c-0.265 1.288-0.774 2.513-1.501 3.609-0.119 0.178-0.19 0.397-0.19 0.632 0 0.315 0.128 0.601 0.334 0.808l1.786 1.786-1.616 1.616-1.783-1.783c-0.207-0.207-0.493-0.334-0.808-0.334-0.234 0-0.451 0.070-0.633 0.191l0.004-0.003c-1.098 0.723-2.324 1.227-3.611 1.489-0.526 0.11-0.915 0.569-0.915 1.12 0 0 0 0.001 0 0.001v0 2.529h-2.286v-2.518c0 0 0 0 0 0 0-0.55-0.387-1.008-0.905-1.118l-0.007-0.001c-1.288-0.265-2.513-0.774-3.609-1.501-0.178-0.119-0.397-0.19-0.632-0.19-0.315 0-0.601 0.128-0.808 0.334l-1.786 1.786-1.616-1.616 1.783-1.783c0.207-0.207 0.334-0.493 0.334-0.808 0-0.234-0.070-0.451-0.191-0.633l0.003 0.004c-0.723-1.098-1.227-2.324-1.489-3.611-0.11-0.526-0.569-0.915-1.12-0.915 0 0-0.001 0-0.001 0h-2.529v-2.286h2.518c0 0 0 0 0 0 0.55 0 1.008-0.387 1.118-0.905l0.001-0.007c0.265-1.288 0.774-2.514 1.501-3.609 0.119-0.178 0.19-0.397 0.19-0.632 0-0.315-0.128-0.601-0.334-0.808l-1.786-1.786 1.616-1.616 1.783 1.783c0.207 0.207 0.493 0.334 0.808 0.334 0.234 0 0.451-0.070 0.633-0.191l-0.004 0.003c1.098-0.723 2.324-1.227 3.611-1.489 0.526-0.11 0.915-0.569 0.915-1.12 0 0 0-0.001 0-0.001v0z"/><path d="M16 10.285c-3.142 0-5.714 2.572-5.714 5.714s2.572 5.714 5.714 5.714c3.142 0 5.714-2.572 5.714-5.714s-2.572-5.714-5.714-5.714zM16 12.571c1.907 0 3.429 1.522 3.429 3.429s-1.522 3.429-3.429 3.429c-1.907 0-3.429-1.522-3.429-3.429s1.522-3.429 3.429-3.429z"/><text x="0" y="47" fill="#000000" font-size="5px" font-weight="bold" font-family="'Helvetica Neue', Helvetica, Arial-Unicode, Arial, Sans-serif">Created by scott desmond</text><text x="0" y="52" fill="#000000" font-size="5px" font-weight="bold" font-family="'Helvetica Neue', Helvetica, Arial-Unicode, Arial, Sans-serif">from the Noun Project</text></svg>