<svg xmlns="http://www.w3.org/2000/svg" version="1.1" viewBox="0 0 32 40" x="0px" y="0px"><title>check-circle</title><path d="M15.999 0.011c-8.817 0-15.989 7.172-15.989 15.989s7.172 15.989 15.989 15.989c8.817 0 15.989-7.172 15.989-15.989 0-1.814-0.303-3.56-0.861-5.188-0.151-0.466-0.581-0.797-1.089-0.797-0.631 0-1.142 0.511-1.142 1.142 0 0.142 0.026 0.278 0.073 0.403l-0.003-0.008c0.478 1.394 0.737 2.888 0.737 4.448 0 7.583-6.122 13.705-13.705 13.705s-13.705-6.122-13.705-13.705c0-7.583 6.122-13.705 13.705-13.705 3 0 5.763 0.96 8.019 2.591 0.186 0.135 0.418 0.216 0.669 0.216 0.631 0 1.142-0.512 1.142-1.142 0-0.38-0.185-0.716-0.47-0.923l-0.003-0.002c-2.63-1.901-5.868-3.024-9.357-3.024z"/><path d="M30.86 2.283c-0.001 0-0.003 0-0.004 0-0.348 0-0.66 0.156-0.869 0.401l-0.001 0.002-15.185 17.354-5.989-5.989c-0.207-0.207-0.492-0.334-0.807-0.334-0.631 0-1.142 0.512-1.142 1.142 0 0.316 0.128 0.601 0.335 0.808l6.852 6.852c0.207 0.207 0.492 0.335 0.807 0.335 0.342 0 0.649-0.151 0.859-0.389l0.001-0.001 15.989-18.273c0.182-0.202 0.294-0.471 0.294-0.765 0-0.63-0.51-1.14-1.139-1.142v0z"/><text x="0" y="47" fill="#000000" font-size="5px" font-weight="bold" font-family="'Helvetica Neue', Helvetica, Arial-Unicode, Arial, Sans-serif">Created by scott desmond</text><text x="0" y="52" fill="#000000" font-size="5px" font-weight="bold" font-family="'Helvetica Neue', Helvetica, Arial-Unicode, Arial, Sans-serif">from the Noun Project</text></svg>