<svg xmlns="http://www.w3.org/2000/svg" version="1.1" viewBox="0 0 32 40" x="0px" y="0px"><title>bell</title><path d="M13.63-0.001c-5.889 0-10.667 4.778-10.667 10.667v7.111c0 1.679-1.128 3.045-2.664 3.439-0.516 0.136-0.891 0.598-0.891 1.148v0 0.154c0 0.655 0.531 1.185 1.185 1.185h30.815c0.655 0 1.185-0.53 1.185-1.185v0-0.154c0-0.55-0.375-1.013-0.883-1.146l-0.008-0.002c-1.536-0.393-2.664-1.76-2.664-3.439v-7.111c0-5.889-4.778-10.667-10.667-10.667h-4.741zM13.63 2.37h4.741c4.617 0 8.296 3.679 8.296 8.296v7.111c0 1.336 0.459 2.563 1.208 3.556h-23.75c0.75-0.993 1.208-2.219 1.208-3.556v-7.111c0-4.617 3.679-8.296 8.296-8.296z"/><path d="M12.427 26.058c-0.647 0.010-1.168 0.537-1.168 1.185 0 0.006 0 0.011 0 0.017v-0.001c0 2.604 2.136 4.741 4.741 4.741s4.741-2.136 4.741-4.741c0-0.005 0-0.011 0-0.017 0-0.655-0.53-1.185-1.185-1.185s-1.185 0.53-1.185 1.185c0 0.006 0 0.012 0 0.018v-0.001c0 1.323-1.047 2.37-2.37 2.37s-2.37-1.047-2.37-2.37c0-0.005 0-0.011 0-0.016 0-0.655-0.53-1.185-1.185-1.185-0.006 0-0.012 0-0.018 0h0.001z"/><text x="0" y="47" fill="#000000" font-size="5px" font-weight="bold" font-family="'Helvetica Neue', Helvetica, Arial-Unicode, Arial, Sans-serif">Created by scott desmond</text><text x="0" y="52" fill="#000000" font-size="5px" font-weight="bold" font-family="'Helvetica Neue', Helvetica, Arial-Unicode, Arial, Sans-serif">from the Noun Project</text></svg>