<svg xmlns="http://www.w3.org/2000/svg" version="1.1" viewBox="0 0 32 40" x="0px" y="0px"><title>refresh-ccw</title><path d="M16 2.247c-5.838 0-10.837 3.66-12.829 8.805l-0.968-3.389c-0.135-0.489-0.575-0.844-1.099-0.848h-0.001c-0.002 0-0.006 0-0.009 0-0.633 0-1.146 0.513-1.146 1.146 0 0.118 0.018 0.232 0.051 0.339l-0.002-0.008 2.276 7.965c0.117 0.518 0.574 0.899 1.119 0.899 0.633 0 1.146-0.513 1.146-1.146 0-0.004 0-0.008 0-0.011v0.001c0-6.343 5.118-11.461 11.461-11.461 4.128 0 7.732 2.174 9.752 5.437 0.205 0.329 0.566 0.546 0.977 0.546 0.633 0 1.147-0.513 1.147-1.147 0-0.225-0.065-0.434-0.176-0.611l0.003 0.005c-2.424-3.915-6.767-6.523-11.702-6.523zM28.591 14.838c-0.016 0.001-0.030 0.002-0.044 0.002h0.004c-0.027 0.001-0.053 0.002-0.078 0.005l0.005-0.001c-0.013 0.002-0.019 0.003-0.024 0.005l0.007-0.001c-0.568 0.075-1.002 0.555-1.002 1.137 0 0.025 0.001 0.049 0.002 0.073v-0.003c-0.030 6.318-5.135 11.406-11.46 11.406-4.128 0-7.732-2.173-9.752-5.436-0.206-0.327-0.564-0.54-0.973-0.54-0.633 0-1.147 0.513-1.147 1.147 0 0.222 0.063 0.43 0.173 0.605l-0.003-0.005c2.424 3.915 6.767 6.522 11.702 6.522 5.838 0 10.837-3.661 12.829-8.805l0.968 3.39c0.142 0.484 0.582 0.831 1.103 0.831 0.633 0 1.147-0.513 1.147-1.147 0-0.112-0.016-0.221-0.046-0.323l0.002 0.008-2.274-7.962c-0.088-0.408-0.385-0.73-0.77-0.854l-0.008-0.002c0.006 0.002 0.003 0.001 0.001 0l-0.008-0.002c-0.026-0.009-0.061-0.018-0.097-0.025l-0.007-0.001c0.003 0.001 0.001 0-0.002-0.001l-0.006-0.001c-0.015-0.003-0.038-0.007-0.060-0.010l-0.006-0.001c-0.010-0.002-0.026-0.004-0.042-0.006l-0.006-0.001c-0.021-0.002-0.047-0.003-0.073-0.005h-0.002c-0.008-0.001-0.019-0.001-0.030-0.001h-0.001c-0.001 0-0.003 0-0.005 0s-0.003 0-0.005 0v0c-0.002 0-0.003 0-0.006 0s-0.004 0-0.006 0h0.001z"/><text x="0" y="47" fill="#000000" font-size="5px" font-weight="bold" font-family="'Helvetica Neue', Helvetica, Arial-Unicode, Arial, Sans-serif">Created by scott desmond</text><text x="0" y="52" fill="#000000" font-size="5px" font-weight="bold" font-family="'Helvetica Neue', Helvetica, Arial-Unicode, Arial, Sans-serif">from the Noun Project</text></svg>