<svg xmlns="http://www.w3.org/2000/svg" version="1.1" viewBox="0 0 32 40" x="0px" y="0px"><title>home</title><path d="M16.026 0.001c-0.007 0-0.017-0.001-0.025-0.001-0.33 0-0.628 0.141-0.837 0.365l-0.001 0.001-14.857 15.999c-0.189 0.203-0.306 0.477-0.306 0.778 0 0.631 0.511 1.143 1.142 1.143h1.143v12.571c0 0.631 0.512 1.143 1.143 1.143h25.142c0.631 0 1.143-0.511 1.143-1.143v0-12.571h1.143c0.631 0 1.142-0.512 1.142-1.143 0-0.301-0.116-0.574-0.306-0.778l0.001 0.001-14.857-15.999c-0.203-0.219-0.49-0.357-0.81-0.365h-0.001zM16 2.823l12.274 13.217c-0.491 0.135-0.846 0.578-0.846 1.103v12.571h-5.714v-11.428c0-0.631-0.511-1.143-1.143-1.143h-9.143c-0.631 0-1.143 0.511-1.143 1.143v0 11.428h-5.714v-12.571c0 0 0 0 0-0.001 0-0.525-0.354-0.967-0.837-1.102l-0.008-0.002 12.273-13.216zM12.572 19.429h6.857v10.285h-6.857z"/><text x="0" y="47" fill="#000000" font-size="5px" font-weight="bold" font-family="'Helvetica Neue', Helvetica, Arial-Unicode, Arial, Sans-serif">Created by scott desmond</text><text x="0" y="52" fill="#000000" font-size="5px" font-weight="bold" font-family="'Helvetica Neue', Helvetica, Arial-Unicode, Arial, Sans-serif">from the Noun Project</text></svg>