<svg xmlns="http://www.w3.org/2000/svg" version="1.1" viewBox="0 0 32 40" x="0px" y="0px"><title>inbox</title><path d="M5.715 0.002c0 0 0 0 0 0-0.519 0-0.958 0.347-1.097 0.821l-4.573 16.006c0.001-0.006 0.001-0.005 0.001-0.003l-0.002 0.008c-0.002 0.005-0.005 0.017-0.007 0.029l-0.002 0.008c-0.005 0.018-0.011 0.045-0.015 0.071l-0.001 0.007c-0.006 0.031-0.010 0.071-0.013 0.11v0.003c0 0.004-0.001 0.011-0.001 0.019v0.002c-0.001 0.017-0.002 0.038-0.002 0.058v13.713c0 0.631 0.512 1.143 1.143 1.143h29.711c0.631 0 1.143-0.511 1.143-1.143v0-13.713c-0.001-0.009-0.001-0.013-0.002-0.017l0.001 0.005c0-0.029-0.001-0.057-0.003-0.085v0.004c-0.001-0.016-0.002-0.028-0.004-0.040l0.001 0.005c-0.003-0.030-0.007-0.054-0.011-0.077l0.001 0.007c-0.004-0.022-0.007-0.037-0.010-0.053l0.002 0.007c-0.006-0.032-0.012-0.056-0.019-0.079l0.002 0.008-4.571-15.998c-0.141-0.483-0.579-0.829-1.099-0.829 0 0 0 0-0.001 0h-20.569zM6.577 2.287h18.846l3.917 13.713h-6.103c-0.502 0-0.927 0.323-1.081 0.773l-0.002 0.008-1.263 3.79h-9.78l-1.263-3.79c-0.156-0.458-0.582-0.781-1.083-0.781h-6.103l3.917-13.713zM2.287 18.286h5.653l1.263 3.79c0.156 0.458 0.582 0.781 1.083 0.781h11.427c0.502 0 0.927-0.323 1.081-0.773l0.002-0.008 1.263-3.79h5.653v11.427h-27.426z"/><text x="0" y="47" fill="#000000" font-size="5px" font-weight="bold" font-family="'Helvetica Neue', Helvetica, Arial-Unicode, Arial, Sans-serif">Created by scott desmond</text><text x="0" y="52" fill="#000000" font-size="5px" font-weight="bold" font-family="'Helvetica Neue', Helvetica, Arial-Unicode, Arial, Sans-serif">from the Noun Project</text></svg>