<svg xmlns="http://www.w3.org/2000/svg" version="1.1" viewBox="0 0 32 40" x="0px" y="0px"><title>activity</title><path d="M13.746 5.725c-0.009 0-0.019-0.001-0.030-0.001-0.444 0-0.829 0.253-1.018 0.624l-0.003 0.006-4.251 8.503h-7.287c-0.005 0-0.010 0-0.016 0-0.631 0-1.142 0.511-1.142 1.142s0.511 1.142 1.142 1.142c0.006 0 0.011 0 0.017 0h7.991c0 0 0 0 0 0 0.445 0 0.829-0.254 1.018-0.625l0.003-0.006 3.187-6.373 3.819 15.274c0.128 0.5 0.575 0.864 1.108 0.864 0.444 0 0.829-0.253 1.018-0.624l0.003-0.006 4.251-8.503h7.287c0.005 0 0.010 0 0.016 0 0.631 0 1.142-0.511 1.142-1.142s-0.511-1.142-1.142-1.142c-0.006 0-0.011 0-0.017 0h-7.991c0 0 0 0 0 0-0.445 0-0.829 0.254-1.018 0.625l-0.003 0.006-3.187 6.374-3.819-15.274c-0.126-0.491-0.558-0.85-1.077-0.864h-0.002z"/><text x="0" y="47" fill="#000000" font-size="5px" font-weight="bold" font-family="'Helvetica Neue', Helvetica, Arial-Unicode, Arial, Sans-serif">Created by scott desmond</text><text x="0" y="52" fill="#000000" font-size="5px" font-weight="bold" font-family="'Helvetica Neue', Helvetica, Arial-Unicode, Arial, Sans-serif">from the Noun Project</text></svg>