<svg xmlns="http://www.w3.org/2000/svg" version="1.1" viewBox="0 0 32 40" x="0px" y="0px"><title>search</title><path d="M14.857 0.001c-8.192 0-14.857 6.665-14.857 14.857s6.665 14.857 14.857 14.857c3.685 0 7.059-1.352 9.658-3.582l5.534 5.534c0.207 0.207 0.493 0.334 0.808 0.334 0.631 0 1.143-0.512 1.143-1.143 0-0.316-0.128-0.602-0.335-0.809l-5.535-5.534c2.231-2.599 3.584-5.972 3.584-9.658 0-8.192-6.665-14.857-14.857-14.857zM14.857 2.286c6.956 0 12.571 5.615 12.571 12.571s-5.615 12.571-12.571 12.571c-6.956 0-12.571-5.615-12.571-12.571s5.615-12.571 12.571-12.571z"/><text x="0" y="47" fill="#000000" font-size="5px" font-weight="bold" font-family="'Helvetica Neue', Helvetica, Arial-Unicode, Arial, Sans-serif">Created by scott desmond</text><text x="0" y="52" fill="#000000" font-size="5px" font-weight="bold" font-family="'Helvetica Neue', Helvetica, Arial-Unicode, Arial, Sans-serif">from the Noun Project</text></svg>