<svg xmlns="http://www.w3.org/2000/svg" width="45" height="45" viewBox="0 0 45 45"><defs><style>.a{fill:#fff;fill-rule:evenodd;}</style></defs><path class="a" d="M22.5,0A22.5,22.5,0,1,0,45,22.5,22.506,22.506,0,0,0,22.5,0ZM37.362,10.371a19.13,19.13,0,0,1,4.344,11.958,45.379,45.379,0,0,0-13.373-.61c-.146-.317-.268-.659-.415-1-.39-.927-.83-1.879-1.269-2.782C33.726,15.057,36.947,10.908,37.362,10.371ZM22.5,3.319A19.175,19.175,0,0,1,35.239,8.151c-.342.488-3.246,4.368-10.079,6.931a103.753,103.753,0,0,0-7.175-11.25A19.544,19.544,0,0,1,22.5,3.319ZM14.325,5.125a121.273,121.273,0,0,1,7.126,11.1A72.073,72.073,0,0,1,3.685,18.571,19.308,19.308,0,0,1,14.325,5.125ZM3.27,22.524v-.586a70.22,70.22,0,0,0,19.742-2.733c.561,1.074,1.074,2.172,1.562,3.27-.244.073-.512.146-.756.22C13.91,25.892,8.639,34.629,8.2,35.361A19.174,19.174,0,0,1,3.27,22.524ZM22.5,41.73a19.084,19.084,0,0,1-11.787-4.051c.342-.708,4.246-8.224,15.081-12.006.049-.024.073-.024.122-.049a79.445,79.445,0,0,1,4.1,14.569A18.9,18.9,0,0,1,22.5,41.73Zm10.713-3.294a82.685,82.685,0,0,0-3.734-13.69,28.065,28.065,0,0,1,11.958.83A19.053,19.053,0,0,1,33.213,38.435Z"/></svg>