<svg xmlns="http://www.w3.org/2000/svg" xmlns:xlink="http://www.w3.org/1999/xlink" width="45" height="43.896" viewBox="0 0 45 43.896"><defs><style>.a{fill:none;}.b{clip-path:url(#a);}.c{fill:#fff;fill-rule:evenodd;}</style><clipPath id="a"><rect class="a" width="45" height="43.896"/></clipPath></defs><g class="b"><path class="c" d="M158.82,383.44a22.5,22.5,0,0,0-7.113,43.854c1.119.207,1.533-.483,1.533-1.091,0-.539-.014-1.948-.028-3.826-6.257,1.354-7.583-3.011-7.583-3.011a5.942,5.942,0,0,0-2.5-3.287c-2.044-1.4.152-1.367.152-1.367a4.781,4.781,0,0,1,3.453,2.32c2,3.439,5.262,2.445,6.547,1.865a4.89,4.89,0,0,1,1.423-3.011c-5-.566-10.249-2.5-10.249-11.119a8.646,8.646,0,0,1,2.32-6.036,8.042,8.042,0,0,1,.221-5.953s1.892-.608,6.188,2.307a21.283,21.283,0,0,1,11.271,0c4.3-2.914,6.188-2.307,6.188-2.307a8.042,8.042,0,0,1,.221,5.953,8.7,8.7,0,0,1,2.307,6.036c0,8.646-5.262,10.539-10.276,11.1a5.4,5.4,0,0,1,1.533,4.171c0,3.011-.028,5.428-.028,6.174,0,.608.4,1.3,1.547,1.077a22.507,22.507,0,0,0-7.127-43.854Z" transform="translate(-136.32 -383.44)"/></g></svg>